<svg xmlns="http://www.w3.org/2000/svg" width="1000" height="1000"><svg xmlns="http://www.w3.org/2000/svg" xmlns:xlink="http://www.w3.org/1999/xlink" width="1000" height="1000" style="display:inline"><svg xmlns="http://www.w3.org/2000/svg" xmlns:xlink="http://www.w3.org/1999/xlink" width="39" height="39" transform="scale(25.64103)"><svg xmlns="http://www.w3.org/2000/svg" width="39" height="39" fill="none" viewBox="0 0 39 39"><path fill="#c49d9d" d="M14.655 0c-.552 0-1.003.45-1.003 1.003v9.8c0 .553.45.979 1.003.979l4.76.024c1.966 0 3.839.768 5.274 2.16 1.443 1.403 2.25 3.255 2.272 5.217a7.4 7.4 0 0 1-2.156 5.33 7.4 7.4 0 0 1-5.305 2.215h-.085c-1.963-.023-3.814-.829-5.217-2.272-1.392-1.434-2.182-3.308-2.182-5.274v-4.816c0-.552-.427-.948-.981-.948H1.237c-.552 0-1.003.395-1.003.948v9.8c0 .553.45 1.033 1.003 1.033h7.734c1.04 0 1.71-.015 2.262.06.734.1 1.226.309 1.597.679s.58.862.678 1.596c.076.554.144 1.223.144 2.264v7.732c0 .553.395 1.087.949 1.087h4.9c2.2 0 4.36-.454 6.422-1.182 7.682-2.716 12.844-10.017 12.844-18.168S33.605 3.814 25.923 1.098A19.2 19.2 0 0 0 19.5 0z"/></svg></svg></svg></svg>