<svg width="42" height="37" viewBox="0 0 42 37" fill="none" xmlns="http://www.w3.org/2000/svg">
<path d="M30.7355 2.17786C17.5141 -3.75228 4.58156 3.14708 1.1224 14.2005C-0.740232 20.1564 2.35393 26.042 10.3989 27.429C0.360726 17.5309 15.7692 -0.451596 30.7355 2.17786Z" fill="#36B4A7"/>
<path d="M5.68555 26.6418L10.2269 32.3819C18.3174 40.494 35.722 35.3331 39.3434 21.4344C39.9745 17.3021 39.8697 12.5669 37.6628 7.9436C34.6725 21.8067 19.7507 31.3493 5.68555 26.6418Z" fill="#64BA93"/>
<path d="M31.7662 32.4235C34.7219 30.2129 36.902 27.7794 38.183 24.747C44.8382 9.08612 34.2619 -3.5721 18.6318 4.18361C25.2959 1.40466 34.0324 2.13924 37.4292 7.9486C43.0903 17.6685 35.2916 30.6762 31.7662 32.4235Z" fill="#DBDFE2"/>
<path d="M23.558 25.3727C15.51 27.9645 0.923555 28.312 0.693075 17.5883C0.644605 16.0973 0.956198 15.2152 1.18866 13.7659L0.720772 15.1479C-2.97679 27.2488 12.9866 30.7831 23.558 25.3727Z" fill="white"/>
</svg>
